<svg width="50" height="50" viewBox="0 0 50 50" fill="none" xmlns="http://www.w3.org/2000/svg">
<path d="M14.5 42.5L26.5 6.5H13.5L1.5 42.5H14.5Z" fill="white" stroke="black" stroke-width="3" stroke-linejoin="round"/>
<path d="M20 7L8 43" stroke="black" stroke-width="2"/>
<path d="M10.5 33.5H43.5L47.5 29.5L47.5 18.5L43.5 14.5H10.5L6.5 18.5V29.5L10.5 33.5Z" fill="white" stroke="black" stroke-width="3" stroke-linejoin="round"/>
<path d="M36.5 42.5L48.5 6.5H35.5L23.5 42.5H36.5Z" fill="white" stroke="black" stroke-width="3" stroke-linejoin="round"/>
<path d="M25.5 29.5V18.5L21.5 14.5H10.5L6.5 18.5V29.5L10.5 33.5H21.5L25.5 29.5Z" fill="white" stroke="black" stroke-width="3" stroke-linejoin="round"/>
<path d="M32 19H44" stroke="black" stroke-width="2" stroke-linejoin="round"/>
<path d="M28 30L41 30" stroke="black" stroke-width="2" stroke-linejoin="round"/>
<path d="M18.5 19.5H13.5L11.5 21.5V26.5L13.5 28.5H18.5L20.5 26.5V21.5L18.5 19.5Z" fill="black" stroke="black" stroke-width="3" stroke-linecap="round" stroke-linejoin="round"/>
<path d="M13 21V24H14V22H16V21H13Z" fill="white" stroke="white" stroke-width="2" stroke-linecap="round" stroke-linejoin="round"/>
<path d="M18.5 26.5V27.5H19.5V26.5H18.5Z" fill="white" stroke="white" stroke-linecap="round" stroke-linejoin="round"/>
<path d="M42 7L30 43" stroke="black" stroke-width="2"/>
</svg>
