<svg width="80" height="80" viewBox="0 0 80 80" fill="none" xmlns="http://www.w3.org/2000/svg">
<g clip-path="url(#clip0_524_201)">
<rect width="80" height="80" fill="black"/>
<path d="M1 70L14 55L17 49L22 33L9 25L38 10L47 15L56 13M56 13L66 36L77 51L79 55M56 13L43 33L42 52" stroke="#AAAAAA"/>
<rect x="53.5" y="10.5" width="4" height="4" fill="white" stroke="black"/>
<rect x="63.5" y="34.5" width="4" height="4" fill="white" stroke="black"/>
<rect x="74.5" y="48.5" width="4" height="4" fill="white" stroke="black"/>
<rect x="76.5" y="53.5" width="4" height="4" fill="white" stroke="black"/>
<rect x="45.5" y="13.5" width="4" height="4" fill="white" stroke="black"/>
<rect x="41.5" y="30.5" width="4" height="4" fill="white" stroke="black"/>
<rect x="39.5" y="49.5" width="4" height="4" fill="white" stroke="black"/>
<rect x="35.5" y="7.5" width="4" height="4" fill="white" stroke="black"/>
<rect x="7.5" y="23.5" width="4" height="4" fill="white" stroke="black"/>
<rect x="19.5" y="30.5" width="4" height="4" fill="white" stroke="black"/>
<rect x="15.5" y="46.5" width="4" height="4" fill="white" stroke="black"/>
<rect x="11.5" y="53.5" width="4" height="4" fill="white" stroke="black"/>
<rect x="-0.5" y="67.5" width="4" height="4" fill="white" stroke="black"/>
</g>
<defs>
<clipPath id="clip0_524_201">
<rect width="80" height="80" fill="white"/>
</clipPath>
</defs>
</svg>
