<svg width="80" height="80" viewBox="0 0 80 80" fill="none" xmlns="http://www.w3.org/2000/svg">
<g clip-path="url(#clip0_564_373)">
<rect width="80" height="80" fill="black"/>
<path d="M79 74L48 44M48 44L39 31M48 44L35 61L20 69L1 70M48 44L65 30L69 12L73 7" stroke="#AAAAAA"/>
<rect x="-0.5" y="67.5" width="4" height="4" fill="white" stroke="black"/>
<rect x="18.5" y="67.5" width="4" height="4" fill="white" stroke="black"/>
<rect x="32.5" y="59.5" width="4" height="4" fill="white" stroke="black"/>
<rect x="46.5" y="41.5" width="4" height="4" fill="white" stroke="black"/>
<rect x="36.5" y="29.5" width="4" height="4" fill="white" stroke="black"/>
<rect x="63.5" y="28.5" width="4" height="4" fill="white" stroke="black"/>
<rect x="66.5" y="10.5" width="4" height="4" fill="white" stroke="black"/>
<rect x="71.5" y="4.5" width="4" height="4" fill="white" stroke="black"/>
<rect x="76.5" y="71.5" width="4" height="4" fill="white" stroke="black"/>
</g>
<defs>
<clipPath id="clip0_564_373">
<rect width="80" height="80" fill="white"/>
</clipPath>
</defs>
</svg>
