<svg width="80" height="80" viewBox="0 0 80 80" fill="none" xmlns="http://www.w3.org/2000/svg">
<g clip-path="url(#clip0_529_445)">
<rect width="80" height="80" fill="black"/>
<path d="M66 23L79 28L72 33L67 31M66 23L67 31M66 23L54.1064 24.6667L49 33M67 31L52 43M52 43L64 63M52 43L49 33M52 43L22 31M52 43L49 56M49 33L26 18M26 18L22 31M26 18L1 25L22 31M22 31L36 56M22 31L14 40L12 52" stroke="#AAAAAA" stroke-linecap="round" stroke-linejoin="round"/>
<rect x="50.5" y="40.5" width="4" height="4" fill="white" stroke="black"/>
<rect x="46.5" y="30.5" width="4" height="4" fill="white" stroke="black"/>
<rect x="63.5" y="21.5" width="4" height="4" fill="white" stroke="black"/>
<rect x="76.5" y="25.5" width="4" height="4" fill="white" stroke="black"/>
<rect x="70.5" y="30.5" width="4" height="4" fill="white" stroke="black"/>
<rect x="65.5" y="28.5" width="4" height="4" fill="white" stroke="black"/>
<rect x="47.5" y="54.5" width="4" height="4" fill="white" stroke="black"/>
<rect x="33.5" y="54.5" width="4" height="4" fill="white" stroke="black"/>
<rect x="10.5" y="50.5" width="4" height="4" fill="white" stroke="black"/>
<rect x="12.5" y="37.5" width="4" height="4" fill="white" stroke="black"/>
<rect x="20.5" y="29.5" width="4" height="4" fill="white" stroke="black"/>
<rect x="23.5" y="15.5" width="4" height="4" fill="white" stroke="black"/>
<rect x="-0.5" y="22.5" width="4" height="4" fill="white" stroke="black"/>
<rect x="61.5" y="60.5" width="4" height="4" fill="white" stroke="black"/>
</g>
<defs>
<clipPath id="clip0_529_445">
<rect width="80" height="80" fill="white"/>
</clipPath>
</defs>
</svg>
