<svg width="80" height="80" viewBox="0 0 80 80" fill="none" xmlns="http://www.w3.org/2000/svg">
<g clip-path="url(#clip0_524_327)">
<rect width="80" height="80" fill="black"/>
<path d="M79 65L76 63L58 60L45 52M45 52L43 46L40 42L30 31L6 15M45 52L40 54L35 52L1 41" stroke="#AAAAAA"/>
<rect x="-0.5" y="39.5" width="4" height="4" fill="white" stroke="black"/>
<rect x="38.5" y="53.5" width="4" height="4" fill="white" stroke="black"/>
<rect x="32.5" y="50.5" width="4" height="4" fill="white" stroke="black"/>
<rect x="37.5" y="39.5" width="4" height="4" fill="white" stroke="black"/>
<rect x="41.5" y="44.5" width="4" height="4" fill="white" stroke="black"/>
<rect x="43.5" y="50.5" width="4" height="4" fill="white" stroke="black"/>
<rect x="55.5" y="58.5" width="4" height="4" fill="white" stroke="black"/>
<rect x="72.5" y="61.5" width="4" height="4" fill="white" stroke="black"/>
<rect x="76.5" y="63.5" width="4" height="4" fill="white" stroke="black"/>
<rect x="28.5" y="29.5" width="4" height="4" fill="white" stroke="black"/>
<rect x="3.5" y="12.5" width="4" height="4" fill="white" stroke="black"/>
</g>
<defs>
<clipPath id="clip0_524_327">
<rect width="80" height="80" fill="white"/>
</clipPath>
</defs>
</svg>
