<svg width="25" height="25" viewBox="0 0 25 25" fill="none" xmlns="http://www.w3.org/2000/svg">
<path d="M1 9L4 10L7 9L10 10L13 9L16 10L19 9L22 10L24 9" stroke="black" stroke-width="2" stroke-miterlimit="10" stroke-linecap="round" stroke-linejoin="round"/>
<path d="M24 22V16H9L12 22L15 21L18 22L21 21L24 22Z" fill="white" stroke="black" stroke-width="2" stroke-linecap="round" stroke-linejoin="round"/>
<path d="M18 3V13H13L18 3Z" fill="white" stroke="black" stroke-width="2" stroke-linecap="round" stroke-linejoin="round"/>
<path d="M18 13V16" stroke="black" stroke-width="2"/>
<path d="M3 1V5" stroke="black" stroke-width="2" stroke-linecap="round" stroke-linejoin="round"/>
<path d="M5 3L1 3" stroke="black" stroke-width="2" stroke-linecap="round" stroke-linejoin="round"/>
<path d="M14 2H13V3H14V2Z" stroke="black" stroke-width="2" stroke-linejoin="round"/>
<path d="M9 5H8V6H9V5Z" stroke="black" stroke-width="2" stroke-linejoin="round"/>
</svg>
